<svg class="SvgIco Phone_icon Phone_icon-kyivstar hidden-xxs" xmlns="http://www.w3.org/2000/svg" viewBox="0 0 40 30"><g data-name="Слой 2"><path class="SvgIco_path" d="M36 0H4a4 4 0 0 0-4 4v18l8 8h28a4 4 0 0 0 4-4V4a4 4 0 0 0-4-4zm3 26a3 3 0 0 1-3 3H8.46L1 21.55V4a3 3 0 0 1 3-3h32a3 3 0 0 1 3 3zm-16.21-7.85a1.21 1.21 0 0 0-1.31.47c-.36.47-.7 1-1.05 1.44-.58.79-1.16 1.59-1.73 2.39a1.21 1.21 0 0 0-.1 1.35 1.23 1.23 0 0 0 1.1.7 1.32 1.32 0 0 0 1.09-.5l.46-.62 2.29-3.16a1.24 1.24 0 0 0 .22-1.1 1.22 1.22 0 0 0-.97-.97zm3.58-9V6.79a1.29 1.29 0 0 0-2.57-.2 1.64 1.64 0 0 0 0 .22v4.68a1.3 1.3 0 0 0 2.59 0c-.01-.77-.02-1.55-.02-2.34zm-4.16 5.38a1.31 1.31 0 0 0-1-1.29l-4.15-1.34a2.08 2.08 0 0 0-.56-.13 1.3 1.3 0 0 0-.44 2.53l1.5.49 3 1a1.28 1.28 0 0 0 1.65-1.26zm11.1-2.7l-1.31.41-3.19 1a1.3 1.3 0 0 0-.81 1.63 1.28 1.28 0 0 0 1.56.9c.49-.13 1-.31 1.45-.46l3.08-1a1.27 1.27 0 0 0 .91-1.24 1.3 1.3 0 0 0-1.69-1.24zm-4.63 6.8a1.29 1.29 0 0 0-2.09 1.51c.92 1.29 1.85 2.56 2.78 3.84a1.3 1.3 0 0 0 1.09.52 1.24 1.24 0 0 0 1.09-.69 1.23 1.23 0 0 0-.08-1.35q-1.38-1.92-2.79-3.83z" data-name="Capa 1"></path></g></svg>